HIERARCHY
ROOT Hips
{
  OFFSET -309.14 97.7185 319.331
  CHANNELS 6 Xposition Yposition Zposition Zrotation Xrotation Yrotation
  JOINT ToSpine
  {
    OFFSET -2.69724 7.43032 -0.144315
    CHANNELS 3 Zrotation Xrotation Yrotation
    JOINT Spine
    {
      OFFSET -0.0310711 10.7595 1.96963
      CHANNELS 3 Zrotation Xrotation Yrotation
      JOINT Spine1
      {
        OFFSET 19.9056 3.91189 0.764692
        CHANNELS 3 Zrotation Xrotation Yrotation
        JOINT Neck
        {
          OFFSET 25.9749 7.03908 -0.130764
          CHANNELS 3 Zrotation Xrotation Yrotation
          JOINT Head
          {
            OFFSET 9.52751 0.295786 -0.907742
            CHANNELS 3 Zrotation Xrotation Yrotation
            End Site
            {
              OFFSET 16.4037 0.713936 2.7358
            }
          }
        }
        JOINT LeftShoulder
        {
          OFFSET 17.7449 4.33886 11.7777
          CHANNELS 3 Zrotation Xrotation Yrotation
          JOINT LeftArm
          {
            OFFSET 0.911315 1.27913 9.80584
            CHANNELS 3 Zrotation Xrotation Yrotation
            JOINT LeftForeArm
            {
              OFFSET 28.6126 1.18197 -3.53199
              CHANNELS 3 Zrotation Xrotation Yrotation
              JOINT LeftHand
              {
                OFFSET 27.5088 0.0218783 0.327423
                CHANNELS 3 Zrotation Xrotation Yrotation
                End Site
                {
                  OFFSET 18.6038 -0.000155887 0.382096
                }
              }
            }
          }
        }
        JOINT RightShoulder
        {
          OFFSET 17.1009 2.89543 -12.2328
          CHANNELS 3 Zrotation Xrotation Yrotation
          JOINT RightArm
          {
            OFFSET 1.4228 0.178766 -10.211
            CHANNELS 3 Zrotation Xrotation Yrotation
            JOINT RightForeArm
            {
              OFFSET 28.733 1.87905 2.64907
              CHANNELS 3 Zrotation Xrotation Yrotation
              JOINT RightHand
              {
                OFFSET 27.4588 0.290562 -0.101845
                CHANNELS 3 Zrotation Xrotation Yrotation
                End Site
                {
                  OFFSET 17.8396 -0.255518 -0.000602873
                }
              }
            }
          }
        }
      }
    }
  }
  JOINT LeftUpLeg
  {
    OFFSET -5.61296 -2.22332 -10.2353
    CHANNELS 3 Zrotation Xrotation Yrotation
    JOINT LeftLeg
    {
      OFFSET 2.56703 -44.7417 -7.93097
      CHANNELS 3 Zrotation Xrotation Yrotation
      JOINT LeftFoot
      {
        OFFSET 3.16933 -46.5642 -3.96578
        CHANNELS 3 Zrotation Xrotation Yrotation
        JOINT LeftToeBase
        {
          OFFSET 0.346054 -6.02161 12.8035
          CHANNELS 3 Zrotation Xrotation Yrotation
          End Site
          {
            OFFSET 0.134235 -1.35082 5.13018
          }
        }
      }
    }
  }
  JOINT RightUpLeg
  {
    OFFSET -5.7928 -1.72406 10.6446
    CHANNELS 3 Zrotation Xrotation Yrotation
    JOINT RightLeg
    {
      OFFSET -2.57161 -44.7178 -7.85259
      CHANNELS 3 Zrotation Xrotation Yrotation
      JOINT RightFoot
      {
        OFFSET -3.10148 -46.5936 -4.03391
        CHANNELS 3 Zrotation Xrotation Yrotation
        JOINT RightToeBase
        {
          OFFSET -0.0828122 -6.13587 12.8035
          CHANNELS 3 Zrotation Xrotation Yrotation
          End Site
          {
            OFFSET -0.131328 -1.35082 5.13018
          }
        }
      }
    }
  }
}
MOTION
Frames:	8
Frame Time:	0.0333333
-48.453 83.899 48.8143 48.488 41.8637 36.56 -70.1915 0 88.8779 152.852 53.1067 -61.2433 -10.9485 19.5404 6.72373 -166.193 20.4223 177.949 -147.051 57.764 170.661 0.0550182 -17.4563 -23.4555 -105.932 13.1781 -160.496 1.6111 16.018 -15.4531 29.2144 -1.02047 -2.18214 -0.829442 7.89947 24.9367 -92.7866 1.32214 158.458 -0.500441 2.99297 21.0803 14.1072 0.559458 4.36639 -20.2849 -7.45326 81.1589 -94.2032 86.7912 96.647 12.6551 10.8286 -2.03642 -60.7246 -71.1325 -33.7021 -5.87093 10.7226 84.8561 72.8782 85.7851 -63.1474 -7.68049 2.27071 1.0923 -19.3077 -48.5177 -25.7262 
-43.601 87.3737 43.6782 48.9529 41.7147 33.7156 -70.1915 0 88.8779 150.22 54.6963 -61.5359 -14.645 19.3234 8.24576 -164.138 20.0123 176.283 -147.047 56.8762 168.397 0.414488 -17.2303 -18.407 -110.661 9.03061 -163.003 9.8028 17.7546 -23.2139 27.9181 -1.19285 -3.05329 0.186362 6.21523 11.6582 -102.735 -3.03463 162.799 3.8771 -2.04921 25.2078 14.1127 0.520675 4.03697 -29.2374 -7.32906 83.1007 -18.2187 81.1994 20.1724 11.3202 11.7314 -1.77528 -58.1976 -70.1262 -31.9617 -14.0661 10.1541 87.1593 33.9481 83.0871 -23.0408 -8.06544 1.02452 1.14824 -18.3118 -47.7449 -24.2437 
-37.7696 92.1792 37.3843 50.3863 39.8496 31.7335 -70.1915 0 88.8779 148.33 56.9494 -58.8826 -18.2062 20.4909 6.83619 -155.838 19.3896 173.397 -145.36 56.0488 169.724 0.729744 -15.8141 -14.5825 -115.962 7.8594 -162.423 13.736 19.5785 -30.976 29.5848 -1.66926 -4.55568 0.515588 3.12069 2.42397 -110.32 -5.74942 162.522 5.44517 -4.585 29.2988 13.6099 0.524003 4.23784 -39.724 -4.01552 85.8853 -6.68273 69.5817 5.92717 10.5048 12.0405 -1.60131 -47.3089 -67.4854 -21.4888 -24.0946 11.0776 89.0284 14.5394 75.7411 -1.33113 -7.9534 -0.0744647 1.13607 -14.4068 -42.532 -20.4907 
-30.852 97.8799 30.2349 50.0732 39.7505 29.5073 -70.1915 0 88.8779 138.688 62.493 -50.7183 -18.3523 20.8422 5.80985 -141.814 18.2501 171.463 -142.236 55.3042 173.046 0.929505 -13.349 -11.733 -117.916 8.33592 -159.564 17.4573 20.7939 -37.2128 32.2328 -1.5616 -3.65322 0.305204 -0.0765224 -2.52861 -114.122 -7.73927 160.579 6.03806 -5.64391 29.2588 12.3255 0.809028 7.51906 -48.9256 -4.2896 87.2854 -3.28021 57.3434 2.33821 3.66144 12.345 -0.0633809 -28.3378 -49.0347 -14.4377 -35.5399 8.22284 90.4293 6.81916 64.546 6.10523 -7.56182 -0.571013 1.09143 -8.63417 -34.0877 -10.698 
-23.0483 104.455 23.1537 50.555 41.7416 27.5101 -70.1915 0 88.8779 124.786 67.2987 -40.089 -16.7613 20.3555 6.45484 -126.886 17.5841 170.052 -138.612 55.3654 175.411 0.987978 -10.5775 -11.5348 -117.875 6.95614 -156.025 16.6782 18.1736 -39.3784 34.6243 -1.32806 -2.52393 -0.306656 -4.53127 -5.03158 -115.246 -7.54788 158.326 4.22904 -2.49249 28.545 10.7089 0.561061 5.98763 -55.2661 -5.42813 85.5969 -2.1323 49.1519 1.98867 -2.69418 17.1188 1.82344 9.46379 16.7463 -10.3145 -49.923 6.41751 92.2808 2.90101 48.1307 6.19295 -6.34881 1.6323 0.914426 -2.4535 -12.4862 5.92244 
-16.1046 111.039 16.6053 48.7217 44.7317 30.0566 -70.1915 0 88.8779 106.303 70.2258 -22.2649 -12.3424 19.6457 6.85451 -117.155 17.0365 167.241 -136.089 55.9943 175.522 1.03664 -8.72725 -12.7515 -118.4 3.69229 -152.35 12.8914 15.0503 -35.8354 34.7813 -1.0422 -1.60103 -0.899197 -8.69936 -5.09669 -117.506 -3.91783 153.522 3.1503 -0.525814 27.9804 11.3619 0.69202 6.98919 -52.1217 -4.35927 85.0585 -2.77807 54.4091 2.32405 0.198615 17.2013 1.05476 12.5416 26.7181 -5.23075 -59.9272 7.21772 93.2578 0.157049 33.1056 -0.506699 0.249953 10.4109 -0.617097 -8.5379 30.8729 35.1606 
-10.5128 116.985 10.5324 48.557 47.2556 32.7946 -70.1915 0 88.8779 106.42 70.3984 -17.9001 -10.5535 20.9384 3.8781 -113.216 17.2054 165.717 -137.662 57.6744 178.021 1.09821 -7.7804 -14.4576 -118.708 0.099602 -149.065 9.14053 13.9711 -26.446 33.085 -1.26646 -2.52679 -1.23431 -11.2896 -4.74271 -120.686 0.191974 145.643 2.07302 1.62696 26.4266 12.6819 0.734587 6.5831 -45.1998 -2.4247 85.2351 -4.17114 63.7187 5.86309 1.31805 16.7199 0.726413 21.1069 38.9623 -11.0765 -64.39 6.99756 86.4512 -0.228775 32.236 0.53211 1.68539 12.9308 -1.13298 -15.3306 52.2767 41.9566 
-5.79757 121.924 5.63328 52.7088 46.78 30.1486 -70.1915 0 88.8779 116.788 70.651 -24.5673 -7.12243 23.404 -0.84779 -115.698 16.8347 164.954 -136.182 56.9624 176.403 1.09808 -6.45556 -12.5787 -117.725 -4.36227 -139.328 4.21588 8.9231 -19.2405 30.9094 -1.15734 -2.44951 -1.13104 -11.3203 -3.60426 -122.652 8.26926 135.679 -2.09535 10.8591 24.5285 12.5402 0.540094 4.80749 -38.8118 -0.767889 87.619 -6.14527 68.2907 5.67068 2.22799 15.0899 0.402447 17.5758 36.4631 -6.45758 -66.3255 5.91687 84.4295 1.29555 41.0657 -1.57156 1.0162 13.8839 -1.05145 -20.9181 62.8805 46.8088 
